<svg xmlns="http://www.w3.org/2000/svg" version="1.1" xmlns:xlink="http://www.w3.org/1999/xlink" xmlns:svgjs="http://svgjs.dev/svgjs" viewBox="0 0 16.275235004636905 3.170144372305244"><g transform="matrix(1,0,0,1,2.7368834068602057,0.7481518361526222)"><g><path d=" M 0.714012 0.8525159999999998 L 0.714012 0.4059599999999998 L 0.5719259999999999 0.7199819999999999 L 0.44775 0.7199819999999999 L 0.305664 0.4059599999999998 L 0.305664 0.8525159999999998 L 0.072834 0.8525159999999998 L 0.072834 0.0047759999999998914 L 0.327156 0.0047759999999998914 L 0.509838 0.4035719999999998 L 0.6937139999999999 0.0047759999999998914 L 0.946842 0.0047759999999998914 L 0.946842 0.8525159999999998 L 0.714012 0.8525159999999998 M 1.7086186640624998 0.6495359999999999 L 1.7086186640624998 0.8525159999999998 L 1.1044546640625 0.8525159999999998 L 1.1044546640625 0.0047759999999998914 L 1.6978726640625 0.0047759999999998914 L 1.6978726640625 0.20775599999999983 L 1.3372846640624998 0.20775599999999983 L 1.3372846640624998 0.3271559999999999 L 1.6453366640624998 0.3271559999999999 L 1.6453366640624998 0.5158079999999998 L 1.3372846640624998 0.5158079999999998 L 1.3372846640624998 0.6495359999999999 L 1.7086186640624998 0.6495359999999999 M 1.8291945908203124 0.8525159999999998 L 1.8291945908203124 0.0047759999999998914 L 2.0620245908203123 0.0047759999999998914 L 2.0620245908203123 0.6495359999999999 L 2.4464925908203123 0.6495359999999999 L 2.4464925908203123 0.8525159999999998 L 1.8291945908203124 0.8525159999999998 M 2.9110180576171873 0.8596799999999998 Q 2.8143040576171874 0.8596799999999998 2.7355000576171875 0.8232629999999999 Q 2.656696057617187 0.7868459999999998 2.599981057617187 0.7253549999999999 Q 2.5432660576171875 0.6638639999999998 2.5128190576171874 0.5868509999999998 Q 2.4823720576171873 0.5098379999999998 2.4823720576171873 0.42745199999999983 Q 2.4823720576171873 0.3426779999999998 2.5146100576171873 0.2662619999999999 Q 2.5468480576171872 0.18984599999999985 2.6047570576171872 0.1295489999999998 Q 2.662666057617187 0.06925199999999987 2.742067057617187 0.034625999999999824 Q 2.8214680576171873 -1.1102230246251565e-16 2.9157940576171875 -1.1102230246251565e-16 Q 3.0125080576171874 -1.1102230246251565e-16 3.0913120576171873 0.03641699999999981 Q 3.170116057617187 0.07283399999999984 3.2262340576171873 0.13492199999999988 Q 3.2823520576171874 0.1970099999999998 3.3127990576171875 0.2740229999999998 Q 3.343246057617187 0.3510359999999998 3.343246057617187 0.43222799999999983 Q 3.343246057617187 0.5158079999999998 3.311605057617187 0.5922239999999999 Q 3.279964057617187 0.6686399999999999 3.222055057617187 0.7289369999999998 Q 3.164146057617187 0.7892339999999998 3.0853420576171873 0.8244569999999998 Q 3.0065380576171874 0.8596799999999998 2.9110180576171873 0.8596799999999998 M 2.7187840576171873 0.42983999999999983 Q 2.7187840576171873 0.47282399999999986 2.7307240576171874 0.5128229999999998 Q 2.7426640576171875 0.5528219999999998 2.766544057617187 0.5844629999999998 Q 2.7904240576171873 0.6161039999999999 2.8268410576171874 0.6346109999999998 Q 2.8632580576171875 0.6531179999999999 2.913406057617187 0.6531179999999999 Q 2.9635540576171873 0.6531179999999999 3.0005680576171874 0.6340139999999999 Q 3.037582057617187 0.6149099999999998 3.060865057617187 0.5820749999999999 Q 3.0841480576171874 0.5492399999999998 3.0954910576171875 0.5092409999999998 Q 3.1068340576171876 0.4692419999999998 3.1068340576171876 0.42745199999999983 Q 3.1068340576171876 0.38446799999999987 3.0948940576171875 0.3450659999999999 Q 3.0829540576171874 0.3056639999999998 3.0590740576171873 0.2740229999999998 Q 3.035194057617187 0.24238199999999988 2.998180057617187 0.2244719999999999 Q 2.9611660576171874 0.2065619999999998 2.9122120576171873 0.2065619999999998 Q 2.862064057617187 0.2065619999999998 2.8256470576171875 0.2256659999999998 Q 2.7892300576171873 0.24476999999999982 2.765350057617187 0.27641099999999985 Q 2.741470057617187 0.3080519999999999 2.7301270576171874 0.3480509999999999 Q 2.7187840576171873 0.38804999999999984 2.7187840576171873 0.42983999999999983" fill="#ffffff" fill-rule="nonzero"></path></g><g><path d=" M 0.06675 1.6738406999999997 L 0.06675 1.1413406999999998 L 0.2475 1.1413406999999998 Q 0.33225 1.1413406999999998 0.388875 1.1769656999999998 Q 0.4455 1.2125906999999998 0.47400000000000003 1.2729656999999999 Q 0.5025000000000001 1.3333406999999997 0.5025000000000001 1.4068406999999996 Q 0.5025000000000001 1.4878406999999998 0.471375 1.5478406999999996 Q 0.44025000000000003 1.6078406999999997 0.382875 1.6408406999999998 Q 0.3255 1.6738406999999997 0.2475 1.6738406999999997 L 0.06675 1.6738406999999997 M 0.45 1.4068406999999996 Q 0.45 1.3430906999999999 0.426375 1.2935906999999998 Q 0.40275 1.2440906999999997 0.35775 1.2159656999999997 Q 0.31275000000000003 1.1878406999999997 0.2475 1.1878406999999997 L 0.11925000000000001 1.1878406999999997 L 0.11925000000000001 1.6273406999999998 L 0.2475 1.6273406999999998 Q 0.3135 1.6273406999999998 0.3585 1.5980906999999998 Q 0.4035 1.5688406999999998 0.42675 1.5189656999999996 Q 0.45 1.4690906999999997 0.45 1.4068406999999996 M 0.9682701416015626 1.6273406999999998 L 0.9682701416015626 1.6738406999999997 L 0.6105201416015625 1.6738406999999997 L 0.6105201416015625 1.1413406999999998 L 0.9615201416015626 1.1413406999999998 L 0.9615201416015626 1.1878406999999997 L 0.6630201416015625 1.1878406999999997 L 0.6630201416015625 1.3798406999999997 L 0.9232701416015625 1.3798406999999997 L 0.9232701416015625 1.4240906999999998 L 0.6630201416015625 1.4240906999999998 L 0.6630201416015625 1.6273406999999998 L 0.9682701416015626 1.6273406999999998 M 1.0290439453125002 1.4038406999999997 Q 1.0290439453125002 1.3550906999999996 1.0459189453125002 1.3082156999999996 Q 1.0627939453125002 1.2613406999999996 1.0950439453125 1.2227156999999997 Q 1.1272939453125002 1.1840906999999996 1.1745439453125002 1.1612156999999996 Q 1.2217939453125002 1.1383406999999997 1.2817939453125002 1.1383406999999997 Q 1.3530439453125 1.1383406999999997 1.4036689453125002 1.1709656999999998 Q 1.4542939453125001 1.2035906999999997 1.4782939453125001 1.2545906999999996 L 1.4370439453125001 1.2800906999999997 Q 1.4197939453125001 1.2448406999999997 1.3935439453125 1.2242156999999998 Q 1.3672939453125001 1.2035906999999997 1.3376689453125001 1.1945906999999998 Q 1.3080439453125001 1.1855906999999997 1.2787939453125001 1.1855906999999997 Q 1.2307939453125 1.1855906999999997 1.1940439453125 1.2047156999999997 Q 1.1572939453125002 1.2238406999999998 1.1321689453125001 1.2557156999999997 Q 1.1070439453125 1.2875906999999998 1.0942939453125002 1.3269656999999997 Q 1.0815439453125002 1.3663406999999999 1.0815439453125002 1.4068406999999996 Q 1.0815439453125002 1.4510906999999997 1.0965439453125 1.4915906999999997 Q 1.1115439453125002 1.5320906999999997 1.1385439453125001 1.5632156999999998 Q 1.1655439453125 1.5943406999999998 1.2019189453125 1.6127156999999996 Q 1.2382939453125001 1.6310906999999997 1.2810439453125002 1.6310906999999997 Q 1.3110439453125 1.6310906999999997 1.3425439453125 1.6205906999999997 Q 1.3740439453125002 1.6100906999999998 1.4014189453125 1.5883406999999998 Q 1.4287939453125 1.5665906999999997 1.4452939453125002 1.5320906999999997 L 1.4887939453125 1.5545906999999997 Q 1.4722939453125001 1.5943406999999998 1.4377939453125002 1.6220906999999998 Q 1.4032939453125002 1.6498406999999997 1.3609189453125001 1.6640906999999998 Q 1.3185439453125 1.6783406999999997 1.2780439453125 1.6783406999999997 Q 1.2232939453125002 1.6783406999999997 1.1775439453125 1.6547156999999997 Q 1.1317939453125 1.6310906999999997 1.0984189453125002 1.5917156999999997 Q 1.0650439453125 1.5523406999999998 1.0470439453125002 1.5032156999999997 Q 1.0290439453125002 1.4540906999999996 1.0290439453125002 1.4038406999999997 M 1.9440245361328126 1.6273406999999998 L 1.9440245361328126 1.6738406999999997 L 1.5862745361328128 1.6738406999999997 L 1.5862745361328128 1.1413406999999998 L 1.9372745361328128 1.1413406999999998 L 1.9372745361328128 1.1878406999999997 L 1.6387745361328128 1.1878406999999997 L 1.6387745361328128 1.3798406999999997 L 1.8990245361328126 1.3798406999999997 L 1.8990245361328126 1.4240906999999998 L 1.6387745361328128 1.4240906999999998 L 1.6387745361328128 1.6273406999999998 L 1.9440245361328126 1.6273406999999998 M 2.103031127929688 1.2380906999999997 L 2.103031127929688 1.6738406999999997 L 2.0505311279296876 1.6738406999999997 L 2.0505311279296876 1.1413406999999998 L 2.094031127929688 1.1413406999999998 L 2.443531127929688 1.5853406999999997 L 2.443531127929688 1.1420906999999998 L 2.4960311279296876 1.1420906999999998 L 2.4960311279296876 1.6738406999999997 L 2.4472811279296875 1.6738406999999997 L 2.103031127929688 1.2380906999999997 M 3.015010620117188 1.1878406999999997 L 2.825260620117188 1.1878406999999997 L 2.825260620117188 1.6738406999999997 L 2.772760620117188 1.6738406999999997 L 2.772760620117188 1.1878406999999997 L 2.583010620117188 1.1878406999999997 L 2.583010620117188 1.1413406999999998 L 3.015010620117188 1.1413406999999998 L 3.015010620117188 1.1878406999999997 M 3.1019996337890627 1.6738406999999997 L 3.1019996337890627 1.1413406999999998 L 3.326999633789063 1.1413406999999998 Q 3.361499633789063 1.1413406999999998 3.389999633789063 1.1555906999999999 Q 3.4184996337890627 1.1698406999999997 3.4398746337890627 1.1942156999999998 Q 3.461249633789063 1.2185906999999998 3.472874633789063 1.2482156999999998 Q 3.484499633789063 1.2778406999999996 3.484499633789063 1.3085906999999997 Q 3.484499633789063 1.3468406999999998 3.469874633789063 1.3805906999999997 Q 3.455249633789063 1.4143406999999997 3.428624633789063 1.4375906999999997 Q 3.401999633789063 1.4608406999999997 3.365999633789063 1.4683406999999997 L 3.496499633789063 1.6738406999999997 L 3.437249633789063 1.6738406999999997 L 3.3119996337890627 1.4773406999999996 L 3.154499633789063 1.4773406999999996 L 3.154499633789063 1.6738406999999997 L 3.1019996337890627 1.6738406999999997 M 3.154499633789063 1.4308406999999996 L 3.328499633789063 1.4308406999999996 Q 3.3599996337890627 1.4308406999999996 3.3832496337890627 1.4135906999999999 Q 3.4064996337890627 1.3963406999999997 3.4192496337890628 1.3682156999999997 Q 3.431999633789063 1.3400906999999997 3.431999633789063 1.3085906999999997 Q 3.431999633789063 1.2763406999999998 3.4173746337890627 1.2489656999999998 Q 3.402749633789063 1.2215906999999997 3.378374633789063 1.2047156999999997 Q 3.353999633789063 1.1878406999999997 3.3239996337890627 1.1878406999999997 L 3.154499633789063 1.1878406999999997 L 3.154499633789063 1.4308406999999996 M 3.7620179443359376 1.1413406999999998 L 3.8062679443359375 1.1413406999999998 L 4.027517944335938 1.6738406999999997 L 3.9720179443359376 1.6738406999999997 L 3.9030179443359376 1.5073406999999996 L 3.663767944335938 1.5073406999999996 L 3.5955179443359375 1.6738406999999997 L 3.5392679443359376 1.6738406999999997 L 3.7620179443359376 1.1413406999999998 M 3.8910179443359376 1.4660906999999996 L 3.7837679443359375 1.2028406999999997 L 3.675017944335938 1.4660906999999996 L 3.8910179443359376 1.4660906999999996 M 4.111536987304688 1.6738406999999997 L 4.111536987304688 1.1413406999999998 L 4.164036987304688 1.1413406999999998 L 4.164036987304688 1.6273406999999998 L 4.471536987304688 1.6273406999999998 L 4.471536987304688 1.6738406999999997 L 4.111536987304688 1.6738406999999997 M 4.556292846679688 1.6738406999999997 L 4.556292846679688 1.1413406999999998 L 4.608792846679688 1.1413406999999998 L 4.608792846679688 1.6738406999999997 L 4.556292846679688 1.6738406999999997 M 5.061032226562501 1.2410906999999998 Q 5.049782226562501 1.2283406999999997 5.034782226562501 1.2182156999999998 Q 5.019782226562501 1.2080906999999996 5.001032226562501 1.2005906999999998 Q 4.982282226562501 1.1930906999999997 4.960907226562501 1.1885906999999998 Q 4.939532226562501 1.1840906999999996 4.915532226562501 1.1840906999999996 Q 4.845782226562501 1.1840906999999996 4.813157226562501 1.2107156999999997 Q 4.780532226562501 1.2373406999999998 4.780532226562501 1.2830906999999998 Q 4.780532226562501 1.3145906999999997 4.795907226562501 1.3325906999999997 Q 4.8112822265625015 1.3505906999999997 4.844282226562501 1.3618406999999997 Q 4.877282226562501 1.3730906999999997 4.9282822265625015 1.3850906999999997 Q 4.985282226562501 1.3970906999999997 5.026532226562501 1.4135906999999999 Q 5.067782226562501 1.4300906999999998 5.090282226562501 1.4582156999999998 Q 5.112782226562501 1.4863406999999997 5.112782226562501 1.5343406999999998 Q 5.112782226562501 1.5710906999999996 5.098532226562501 1.5980906999999998 Q 5.084282226562501 1.6250906999999997 5.058782226562501 1.6430906999999997 Q 5.033282226562501 1.6610906999999997 4.9980322265625015 1.6697156999999998 Q 4.962782226562501 1.6783406999999997 4.920782226562501 1.6783406999999997 Q 4.879532226562501 1.6783406999999997 4.841657226562501 1.6697156999999998 Q 4.803782226562501 1.6610906999999997 4.770032226562501 1.6442156999999997 Q 4.736282226562501 1.6273406999999998 4.707032226562501 1.6010906999999996 L 4.733282226562501 1.5583406999999998 Q 4.747532226562501 1.5733406999999997 4.767407226562501 1.5864656999999998 Q 4.7872822265625015 1.5995906999999998 4.811657226562501 1.6100906999999998 Q 4.836032226562501 1.6205906999999997 4.864157226562501 1.6262156999999997 Q 4.892282226562501 1.6318406999999997 4.922282226562501 1.6318406999999997 Q 4.986032226562501 1.6318406999999997 5.0216572265625015 1.6085906999999997 Q 5.057282226562501 1.5853406999999997 5.057282226562501 1.5395906999999998 Q 5.057282226562501 1.5065906999999998 5.039282226562501 1.4867156999999998 Q 5.0212822265625014 1.4668406999999997 4.985282226562501 1.4540906999999996 Q 4.949282226562501 1.4413406999999998 4.896782226562501 1.4293406999999998 Q 4.841282226562501 1.4165906999999998 4.803032226562501 1.4008406999999998 Q 4.7647822265625015 1.3850906999999997 4.745657226562501 1.3592156999999998 Q 4.726532226562501 1.3333406999999997 4.726532226562501 1.2905906999999996 Q 4.726532226562501 1.2410906999999998 4.750907226562501 1.2069656999999998 Q 4.775282226562501 1.1728406999999996 4.818032226562501 1.1552156999999998 Q 4.860782226562501 1.1375906999999996 4.916282226562501 1.1375906999999996 Q 4.9515322265625015 1.1375906999999996 4.981907226562501 1.1447157 Q 5.012282226562501 1.1518406999999997 5.038157226562501 1.1653406999999998 Q 5.064032226562501 1.1788406999999999 5.086532226562501 1.1990906999999997 L 5.061032226562501 1.2410906999999998 M 5.570278198242189 1.6273406999999998 L 5.570278198242189 1.6738406999999997 L 5.212528198242189 1.6738406999999997 L 5.212528198242189 1.1413406999999998 L 5.563528198242189 1.1413406999999998 L 5.563528198242189 1.1878406999999997 L 5.265028198242189 1.1878406999999997 L 5.265028198242189 1.3798406999999997 L 5.525278198242189 1.3798406999999997 L 5.525278198242189 1.4240906999999998 L 5.265028198242189 1.4240906999999998 L 5.265028198242189 1.6273406999999998 L 5.570278198242189 1.6273406999999998 M 5.676784790039064 1.6738406999999997 L 5.676784790039064 1.1413406999999998 L 5.857534790039064 1.1413406999999998 Q 5.942284790039064 1.1413406999999998 5.998909790039064 1.1769656999999998 Q 6.055534790039064 1.2125906999999998 6.084034790039064 1.2729656999999999 Q 6.1125347900390645 1.3333406999999997 6.1125347900390645 1.4068406999999996 Q 6.1125347900390645 1.4878406999999998 6.081409790039064 1.5478406999999996 Q 6.050284790039064 1.6078406999999997 5.992909790039064 1.6408406999999998 Q 5.935534790039064 1.6738406999999997 5.857534790039064 1.6738406999999997 L 5.676784790039064 1.6738406999999997 M 6.060034790039064 1.4068406999999996 Q 6.060034790039064 1.3430906999999999 6.036409790039064 1.2935906999999998 Q 6.012784790039064 1.2440906999999997 5.967784790039064 1.2159656999999997 Q 5.922784790039064 1.1878406999999997 5.857534790039064 1.1878406999999997 L 5.729284790039064 1.1878406999999997 L 5.729284790039064 1.6273406999999998 L 5.857534790039064 1.6273406999999998 Q 5.9235347900390645 1.6273406999999998 5.968534790039064 1.5980906999999998 Q 6.013534790039064 1.5688406999999998 6.036784790039064 1.5189656999999996 Q 6.060034790039064 1.4690906999999997 6.060034790039064 1.4068406999999996 M 6.891058593750002 1.6738406999999997 L 6.891058593750002 1.2403406999999997 L 6.698308593750002 1.5770906999999998 L 6.6653085937500025 1.5770906999999998 L 6.471808593750002 1.2403406999999997 L 6.471808593750002 1.6738406999999997 L 6.419308593750002 1.6738406999999997 L 6.419308593750002 1.1413406999999998 L 6.473308593750002 1.1413406999999998 L 6.681058593750002 1.5058406999999998 L 6.890308593750002 1.1413406999999998 L 6.943558593750002 1.1413406999999998 L 6.943558593750002 1.6738406999999997 L 6.891058593750002 1.6738406999999997 M 7.30131921386719 1.6775906999999997 Q 7.23831921386719 1.6775906999999997 7.19481921386719 1.6550906999999997 Q 7.15131921386719 1.6325906999999997 7.12581921386719 1.5947156999999996 Q 7.10031921386719 1.5568406999999997 7.08869421386719 1.5088406999999997 Q 7.07706921386719 1.4608406999999997 7.07706921386719 1.4098406999999997 L 7.07706921386719 1.1413406999999998 L 7.12881921386719 1.1413406999999998 L 7.12881921386719 1.4098406999999997 Q 7.12881921386719 1.4510906999999997 7.13744421386719 1.4908406999999997 Q 7.14606921386719 1.5305906999999996 7.16556921386719 1.5620906999999997 Q 7.18506921386719 1.5935906999999998 7.21806921386719 1.6119656999999998 Q 7.25106921386719 1.6303406999999996 7.30056921386719 1.6303406999999996 Q 7.35156921386719 1.6303406999999996 7.38494421386719 1.6112156999999998 Q 7.41831921386719 1.5920906999999997 7.43744421386719 1.5605906999999997 Q 7.45656921386719 1.5290906999999998 7.46481921386719 1.4897156999999996 Q 7.47306921386719 1.4503406999999997 7.47306921386719 1.4098406999999997 L 7.47306921386719 1.1413406999999998 L 7.52556921386719 1.1413406999999998 L 7.52556921386719 1.4098406999999997 Q 7.52556921386719 1.4630906999999997 7.51356921386719 1.5118406999999998 Q 7.50156921386719 1.5605906999999997 7.4749442138671895 1.5973406999999997 Q 7.44831921386719 1.6340906999999998 7.40556921386719 1.6558406999999997 Q 7.36281921386719 1.6775906999999997 7.30131921386719 1.6775906999999997 M 7.969572875976565 1.2410906999999998 Q 7.958322875976565 1.2283406999999997 7.943322875976565 1.2182156999999998 Q 7.928322875976566 1.2080906999999996 7.909572875976565 1.2005906999999998 Q 7.890822875976565 1.1930906999999997 7.869447875976565 1.1885906999999998 Q 7.848072875976565 1.1840906999999996 7.824072875976565 1.1840906999999996 Q 7.754322875976565 1.1840906999999996 7.721697875976565 1.2107156999999997 Q 7.689072875976565 1.2373406999999998 7.689072875976565 1.2830906999999998 Q 7.689072875976565 1.3145906999999997 7.704447875976565 1.3325906999999997 Q 7.719822875976566 1.3505906999999997 7.752822875976565 1.3618406999999997 Q 7.7858228759765655 1.3730906999999997 7.836822875976566 1.3850906999999997 Q 7.893822875976565 1.3970906999999997 7.935072875976565 1.4135906999999999 Q 7.976322875976566 1.4300906999999998 7.998822875976566 1.4582156999999998 Q 8.021322875976566 1.4863406999999997 8.021322875976566 1.5343406999999998 Q 8.021322875976566 1.5710906999999996 8.007072875976565 1.5980906999999998 Q 7.992822875976565 1.6250906999999997 7.967322875976565 1.6430906999999997 Q 7.941822875976565 1.6610906999999997 7.906572875976566 1.6697156999999998 Q 7.871322875976565 1.6783406999999997 7.829322875976565 1.6783406999999997 Q 7.788072875976566 1.6783406999999997 7.750197875976565 1.6697156999999998 Q 7.712322875976565 1.6610906999999997 7.678572875976565 1.6442156999999997 Q 7.6448228759765655 1.6273406999999998 7.615572875976565 1.6010906999999996 L 7.641822875976565 1.5583406999999998 Q 7.656072875976565 1.5733406999999997 7.675947875976565 1.5864656999999998 Q 7.695822875976566 1.5995906999999998 7.720197875976565 1.6100906999999998 Q 7.744572875976565 1.6205906999999997 7.772697875976565 1.6262156999999997 Q 7.800822875976565 1.6318406999999997 7.8308228759765655 1.6318406999999997 Q 7.894572875976565 1.6318406999999997 7.930197875976566 1.6085906999999997 Q 7.965822875976565 1.5853406999999997 7.965822875976565 1.5395906999999998 Q 7.965822875976565 1.5065906999999998 7.9478228759765654 1.4867156999999998 Q 7.929822875976566 1.4668406999999997 7.893822875976565 1.4540906999999996 Q 7.857822875976566 1.4413406999999998 7.805322875976565 1.4293406999999998 Q 7.749822875976565 1.4165906999999998 7.711572875976565 1.4008406999999998 Q 7.673322875976566 1.3850906999999997 7.654197875976565 1.3592156999999998 Q 7.635072875976565 1.3333406999999997 7.635072875976565 1.2905906999999996 Q 7.635072875976565 1.2410906999999998 7.659447875976565 1.2069656999999998 Q 7.683822875976565 1.1728406999999996 7.726572875976565 1.1552156999999998 Q 7.769322875976565 1.1375906999999996 7.824822875976565 1.1375906999999996 Q 7.860072875976566 1.1375906999999996 7.890447875976565 1.1447157 Q 7.920822875976565 1.1518406999999997 7.946697875976565 1.1653406999999998 Q 7.9725728759765655 1.1788406999999999 7.9950728759765655 1.1990906999999997 L 7.969572875976565 1.2410906999999998 M 8.121068847656254 1.6738406999999997 L 8.121068847656254 1.1413406999999998 L 8.173568847656252 1.1413406999999998 L 8.173568847656252 1.6738406999999997 L 8.121068847656254 1.6738406999999997 M 8.279308227539065 1.4038406999999997 Q 8.279308227539065 1.3550906999999996 8.296183227539066 1.3082156999999996 Q 8.313058227539067 1.2613406999999996 8.345308227539066 1.2227156999999997 Q 8.377558227539065 1.1840906999999996 8.424808227539065 1.1612156999999996 Q 8.472058227539065 1.1383406999999997 8.532058227539066 1.1383406999999997 Q 8.603308227539065 1.1383406999999997 8.653933227539065 1.1709656999999998 Q 8.704558227539065 1.2035906999999997 8.728558227539066 1.2545906999999996 L 8.687308227539067 1.2800906999999997 Q 8.670058227539066 1.2448406999999997 8.643808227539067 1.2242156999999998 Q 8.617558227539066 1.2035906999999997 8.587933227539066 1.1945906999999998 Q 8.558308227539065 1.1855906999999997 8.529058227539066 1.1855906999999997 Q 8.481058227539066 1.1855906999999997 8.444308227539066 1.2047156999999997 Q 8.407558227539067 1.2238406999999998 8.382433227539066 1.2557156999999997 Q 8.357308227539066 1.2875906999999998 8.344558227539066 1.3269656999999997 Q 8.331808227539065 1.3663406999999999 8.331808227539065 1.4068406999999996 Q 8.331808227539065 1.4510906999999997 8.346808227539066 1.4915906999999997 Q 8.361808227539067 1.5320906999999997 8.388808227539066 1.5632156999999998 Q 8.415808227539065 1.5943406999999998 8.452183227539066 1.6127156999999996 Q 8.488558227539066 1.6310906999999997 8.531308227539066 1.6310906999999997 Q 8.561308227539065 1.6310906999999997 8.592808227539066 1.6205906999999997 Q 8.624308227539066 1.6100906999999998 8.651683227539065 1.5883406999999998 Q 8.679058227539066 1.5665906999999997 8.695558227539065 1.5320906999999997 L 8.739058227539067 1.5545906999999997 Q 8.722558227539066 1.5943406999999998 8.688058227539067 1.6220906999999998 Q 8.653558227539065 1.6498406999999997 8.611183227539065 1.6640906999999998 Q 8.568808227539066 1.6783406999999997 8.528308227539066 1.6783406999999997 Q 8.473558227539066 1.6783406999999997 8.427808227539066 1.6547156999999997 Q 8.382058227539066 1.6310906999999997 8.348683227539066 1.5917156999999997 Q 8.315308227539067 1.5523406999999998 8.297308227539066 1.5032156999999997 Q 8.279308227539065 1.4540906999999996 8.279308227539065 1.4038406999999997 M 9.035292480468755 1.6738406999999997 L 9.035292480468755 1.1413406999999998 L 9.255792480468754 1.1413406999999998 Q 9.290292480468754 1.1413406999999998 9.319167480468755 1.1555906999999999 Q 9.348042480468754 1.1698406999999997 9.369042480468753 1.1942156999999998 Q 9.390042480468754 1.2185906999999998 9.402042480468754 1.2482156999999998 Q 9.414042480468755 1.2778406999999996 9.414042480468755 1.3085906999999997 Q 9.414042480468755 1.3520906999999998 9.394917480468754 1.3907156999999997 Q 9.375792480468753 1.4293406999999998 9.341292480468754 1.4533406999999998 Q 9.306792480468754 1.4773406999999996 9.260292480468754 1.4773406999999996 L 9.087792480468753 1.4773406999999996 L 9.087792480468753 1.6738406999999997 L 9.035292480468755 1.6738406999999997 M 9.087792480468753 1.4308406999999996 L 9.258042480468754 1.4308406999999996 Q 9.289542480468754 1.4308406999999996 9.312792480468755 1.4135906999999999 Q 9.336042480468754 1.3963406999999997 9.348792480468754 1.3685906999999997 Q 9.361542480468755 1.3408406999999998 9.361542480468755 1.3085906999999997 Q 9.361542480468755 1.2755906999999997 9.346542480468754 1.2478406999999998 Q 9.331542480468753 1.2200906999999996 9.307167480468754 1.2039656999999997 Q 9.282792480468753 1.1878406999999997 9.253542480468754 1.1878406999999997 L 9.087792480468753 1.1878406999999997 L 9.087792480468753 1.4308406999999996 M 9.509299438476567 1.6738406999999997 L 9.509299438476567 1.1413406999999998 L 9.561799438476566 1.1413406999999998 L 9.561799438476566 1.6273406999999998 L 9.869299438476567 1.6273406999999998 L 9.869299438476567 1.6738406999999997 L 9.509299438476567 1.6738406999999997 M 10.119055297851567 1.1413406999999998 L 10.163305297851567 1.1413406999999998 L 10.384555297851566 1.6738406999999997 L 10.329055297851568 1.6738406999999997 L 10.260055297851567 1.5073406999999996 L 10.020805297851567 1.5073406999999996 L 9.952555297851568 1.6738406999999997 L 9.896305297851567 1.6738406999999997 L 10.119055297851567 1.1413406999999998 M 10.248055297851566 1.4660906999999996 L 10.140805297851568 1.2028406999999997 L 10.032055297851567 1.4660906999999996 L 10.248055297851566 1.4660906999999996 M 10.795579467773443 1.1878406999999997 L 10.605829467773443 1.1878406999999997 L 10.605829467773443 1.6738406999999997 L 10.553329467773443 1.6738406999999997 L 10.553329467773443 1.1878406999999997 L 10.363579467773443 1.1878406999999997 L 10.363579467773443 1.1413406999999998 L 10.795579467773443 1.1413406999999998 L 10.795579467773443 1.1878406999999997 M 10.882568481445318 1.6738406999999997 L 10.882568481445318 1.1413406999999998 L 11.232068481445317 1.1413406999999998 L 11.232068481445317 1.1878406999999997 L 10.935068481445317 1.1878406999999997 L 10.935068481445317 1.3835906999999996 L 11.185568481445317 1.3835906999999996 L 11.185568481445317 1.4270906999999997 L 10.935068481445317 1.4270906999999997 L 10.935068481445317 1.6738406999999997 L 10.882568481445318 1.6738406999999997 M 11.535827636718755 1.6775906999999997 Q 11.479577636718755 1.6775906999999997 11.433827636718755 1.6550906999999997 Q 11.388077636718755 1.6325906999999997 11.355077636718756 1.5939656999999998 Q 11.322077636718756 1.5553406999999997 11.304077636718755 1.5069656999999999 Q 11.286077636718755 1.4585906999999998 11.286077636718755 1.4075906999999996 Q 11.286077636718755 1.3543406999999998 11.304827636718755 1.3059656999999998 Q 11.323577636718756 1.2575906999999997 11.357702636718756 1.2197156999999996 Q 11.391827636718755 1.1818406999999997 11.437577636718755 1.1597156999999996 Q 11.483327636718755 1.1375906999999996 11.536577636718755 1.1375906999999996 Q 11.592827636718756 1.1375906999999996 11.638577636718756 1.1608406999999996 Q 11.684327636718756 1.1840906999999996 11.716952636718755 1.2230906999999998 Q 11.749577636718755 1.2620906999999997 11.767577636718755 1.3100906999999997 Q 11.785577636718756 1.3580906999999998 11.785577636718756 1.4083406999999997 Q 11.785577636718756 1.4615906999999997 11.766827636718755 1.5099656999999997 Q 11.748077636718754 1.5583406999999998 11.714327636718755 1.5962156999999997 Q 11.680577636718755 1.6340906999999998 11.634827636718756 1.6558406999999997 Q 11.589077636718756 1.6775906999999997 11.535827636718755 1.6775906999999997 M 11.338577636718755 1.4075906999999996 Q 11.338577636718755 1.4510906999999997 11.352827636718755 1.4912156999999997 Q 11.367077636718756 1.5313406999999997 11.393327636718755 1.5624656999999997 Q 11.419577636718754 1.5935906999999998 11.455952636718756 1.6119656999999998 Q 11.492327636718755 1.6303406999999996 11.535827636718755 1.6303406999999996 Q 11.581577636718755 1.6303406999999996 11.617952636718755 1.6112156999999998 Q 11.654327636718754 1.5920906999999997 11.680202636718755 1.5602156999999997 Q 11.706077636718755 1.5283406999999998 11.719577636718755 1.4885906999999998 Q 11.733077636718756 1.4488406999999996 11.733077636718756 1.4075906999999996 Q 11.733077636718756 1.3640906999999998 11.718827636718755 1.3243406999999996 Q 11.704577636718755 1.2845906999999999 11.677952636718755 1.2530906999999998 Q 11.651327636718756 1.2215906999999997 11.615327636718755 1.2035906999999997 Q 11.579327636718755 1.1855906999999997 11.535827636718755 1.1855906999999997 Q 11.490827636718755 1.1855906999999997 11.454452636718756 1.2043406999999997 Q 11.418077636718756 1.2230906999999998 11.392202636718755 1.2549656999999996 Q 11.366327636718756 1.2868406999999997 11.352452636718755 1.3265906999999997 Q 11.338577636718755 1.3663406999999999 11.338577636718755 1.4075906999999996 M 11.892060058593756 1.6738406999999997 L 11.892060058593756 1.1413406999999998 L 12.117060058593756 1.1413406999999998 Q 12.151560058593756 1.1413406999999998 12.180060058593755 1.1555906999999999 Q 12.208560058593756 1.1698406999999997 12.229935058593755 1.1942156999999998 Q 12.251310058593756 1.2185906999999998 12.262935058593756 1.2482156999999998 Q 12.274560058593755 1.2778406999999996 12.274560058593755 1.3085906999999997 Q 12.274560058593755 1.3468406999999998 12.259935058593756 1.3805906999999997 Q 12.245310058593756 1.4143406999999997 12.218685058593756 1.4375906999999997 Q 12.192060058593755 1.4608406999999997 12.156060058593756 1.4683406999999997 L 12.286560058593755 1.6738406999999997 L 12.227310058593755 1.6738406999999997 L 12.102060058593755 1.4773406999999996 L 11.944560058593755 1.4773406999999996 L 11.944560058593755 1.6738406999999997 L 11.892060058593756 1.6738406999999997 M 11.944560058593755 1.4308406999999996 L 12.118560058593756 1.4308406999999996 Q 12.150060058593755 1.4308406999999996 12.173310058593756 1.4135906999999999 Q 12.196560058593755 1.3963406999999997 12.209310058593756 1.3682156999999997 Q 12.222060058593756 1.3400906999999997 12.222060058593756 1.3085906999999997 Q 12.222060058593756 1.2763406999999998 12.207435058593756 1.2489656999999998 Q 12.192810058593755 1.2215906999999997 12.168435058593756 1.2047156999999997 Q 12.144060058593755 1.1878406999999997 12.114060058593756 1.1878406999999997 L 11.944560058593755 1.1878406999999997 L 11.944560058593755 1.4308406999999996 M 12.86107141113282 1.6738406999999997 L 12.86107141113282 1.2403406999999997 L 12.668321411132819 1.5770906999999998 L 12.635321411132818 1.5770906999999998 L 12.441821411132818 1.2403406999999997 L 12.441821411132818 1.6738406999999997 L 12.38932141113282 1.6738406999999997 L 12.38932141113282 1.1413406999999998 L 12.443321411132818 1.1413406999999998 L 12.651071411132818 1.5058406999999998 L 12.86032141113282 1.1413406999999998 L 12.913571411132818 1.1413406999999998 L 12.913571411132818 1.6738406999999997 L 12.86107141113282 1.6738406999999997" fill="#fbe585" fill-rule="nonzero"></path></g><g clip-path="url(&quot;#SvgjsClipPath1001&quot;)"><g clip-path="url(&quot;#SvgjsClipPath1000&quot;)"><path d=" M -1.3501293519892559 0.3058739610635902 L -1.357982814320855 0.30133424713465967 L -1.509966124759721 0.21359274409917212 L -1.534570403192721 0.19939096523059274 L -1.6361434677844002 0.14075703973942277 L -1.6441607967952527 0.136126288766463 L -1.645696288271215 0.13524019487124433 L -1.6960094279381017 0.10619330868961352 L -1.7493510666030325 0.07538637299008116 L -1.8967400408865507 0.16047566347618059 C -1.9891487097126102 0.21381123300484284 -2.0768780744755606 0.2644460368939672 -2.1788820477423134 0.3233834191985686 L -2.1788820477423134 1.3504572808014306 C -2.0768780744755606 1.4093946631060321 -1.9891487097126102 1.460035536131425 -1.8967400408865507 1.5133711056600871 L -1.7796724714010737 1.5809327306024028 L -1.7796724714010737 0.5713986728158622 C -1.7796721959917345 0.5605574804849462 -1.7738883787004185 0.5505399089364033 -1.7644996307294971 0.545119312772712 C -1.680253950184755 0.49646304730716884 -1.6074000384161997 0.45440393296560944 -1.5345461266476454 0.412356956896587 C -1.4751535591228966 0.3780299221612534 -1.4157124385079998 0.3437575096523374 -1.3501293519892559 0.3058739610635902 Z M -1.718981108714841 1.08492649991289 C -1.641150505206014 1.1298866613908523 -1.5726178184607191 1.1694452915897395 -1.5042065144407966 1.2089310921534029 C -1.4357952104208738 1.2484168927170658 -1.367323215038265 1.2879391080983416 -1.289437989303022 1.3329235461213775 C -1.1874340160362693 1.273986163816776 -1.0996985821370504 1.2233452907913835 -1.0072838441747223 1.1700036521264519 L -0.8598948698912041 1.0849264999128896 L -0.8598948698912041 0.588914200087109 L -1.0072838441747223 0.5038370478735467 C -1.0996803747282435 0.4505014783448844 -1.1874522234450748 0.39984239791068543 -1.289437989303022 0.340917153878621 C -1.367274661948117 0.38587124622031443 -1.4358012795571438 0.42542987641920116 -1.5042065144407966 0.46491567698286473 C -1.5726117493244507 0.504401477546529 -1.6410958829795965 0.5439297620640725 -1.718981108714841 0.5889081309508399 Z M -0.5496102781578343 0.2370196100960582 C -0.6457453966528282 0.18152342805576577 -0.7369887913153121 0.1288676017891897 -0.8447098909471082 0.06662254021818859 L -1.0072595676296472 -0.02721237563099735 C -1.099674305591975 -0.08055401429592808 -1.1874097394911942 -0.1311948873213215 -1.2894137127579466 -0.19013226962592297 C -1.367298938493191 -0.14514783160288644 -1.4357405881944563 -0.10564382363041676 -1.5041822378957213 -0.06613374652167923 C -1.5636051511018128 -0.031830988331419535 -1.6230219951716358 0.0024474933137649535 -1.6886293582354535 0.04034318017504909 L -1.6655666404146858 0.053695279966020776 L -1.5041822378957213 0.14686259082565817 C -1.431352602672241 0.18890956689468053 -1.3584744143586116 0.23096868123623993 -1.2742348029501205 0.27962494670179383 C -1.1656883007857919 0.3423434009017473 -1.0738744073140571 0.39533909879936713 -0.9769199554227992 0.4513026043323429 L -0.8143520713314538 0.5451496584540658 C -0.8049633233605362 0.5505702546177647 -0.7991795060692275 0.5605878261663115 -0.7991792306598948 0.571429018497206 L -0.7991792306598948 1.0498833070978586 L -0.7373104555375485 1.0141482327482043 L -0.7313991168119092 1.010737378165238 L -0.7104241818675479 0.9985991056279914 L -0.5495920707490287 0.9057413207180539 L -0.3999635851823893 0.819371442479275 L -0.3999635851823893 0.32340769574364325 Z M -0.814364209603992 1.1287213872272766 L -0.9769442319678745 1.2225745104852686 C -1.0738986838591311 1.2785319468819756 -1.1656943699220605 1.331527644779595 -1.2742530103589274 1.3942460989795493 C -1.2836419968414576 1.3996668328526556 -1.2952097052195133 1.3996668328526556 -1.3045986917020436 1.3942460989795493 C -1.3888322339742663 1.3455837643777269 -1.461686145742823 1.3035307191724357 -1.5345400575113772 1.2614837431034127 C -1.593956901581199 1.227187054049423 -1.6533737456510218 1.1929025032679692 -1.718968970442304 1.1550128855429538 L -1.718968970442304 1.6159759234174347 C -1.6410837447070608 1.660954292304202 -1.5726481641420629 1.7004643694129409 -1.5041943761682597 1.7399744465216789 C -1.4357405881944576 1.7794845236304164 -1.367311076765728 1.818982462466618 -1.2894258510304848 1.863966900489654 C -1.1874218777637324 1.8050295181850524 -1.0996864438645133 1.7543886451596595 -1.0072717059021854 1.7010470064947283 L -0.8447098909471082 1.6072120906455423 C -0.737000929587849 1.5449730982108094 -0.6457575349253664 1.492311202807965 -0.5496224164303711 1.4368150207676726 L -0.3999939308637317 1.3504451425288937 L -0.3999939308637317 0.889476035518144 L -0.5192645968147178 0.9583364556219444 C -0.615423991854787 1.0138204993896989 -0.7066552482447341 1.0664823947925437 -0.814364209603992 1.1287213872272766 Z" fill="#1192dc" transform="matrix(1,0,0,1,0,0)" fill-rule="nonzero"></path></g></g></g><defs><clipPath id="SvgjsClipPath1001"><path d=" M -2.1788638403335066 -0.19013226962592233 h 1.7788638403335064 v 2.0541052392518444 h -1.7788638403335064 Z"></path></clipPath><clipPath id="SvgjsClipPath1000"><path d=" M -2.1788638403335066 -0.19013226962592233 L -0.40000000000000013 -0.19013226962592233 L -0.40000000000000013 1.8639729696259222 L -2.1788638403335066 1.8639729696259222 Z"></path></clipPath></defs></svg>